<?xml version="1.0" encoding="UTF-8" standalone="no"?>
<!-- Created with Inkscape (http://www.inkscape.org/) -->

<svg
   version="1.1"
   id="svg1"
   width="566.93335"
   height="566.93335"
   viewBox="0 0 566.93335 566.93335"
   sodipodi:docname="JEMA VIVI 019-02.eps"
   xmlns:inkscape="http://www.inkscape.org/namespaces/inkscape"
   xmlns:sodipodi="http://sodipodi.sourceforge.net/DTD/sodipodi-0.dtd"
   xmlns="http://www.w3.org/2000/svg"
   xmlns:svg="http://www.w3.org/2000/svg">
  <defs
     id="defs1" />
  <sodipodi:namedview
     id="namedview1"
     pagecolor="#ffffff"
     bordercolor="#000000"
     borderopacity="0.25"
     inkscape:showpageshadow="2"
     inkscape:pageopacity="0.0"
     inkscape:pagecheckerboard="0"
     inkscape:deskcolor="#d1d1d1">
    <inkscape:page
       x="0"
       y="0"
       inkscape:label="1"
       id="page1"
       width="566.93335"
       height="566.93335"
       margin="0"
       bleed="0" />
  </sodipodi:namedview>
  <g
     id="g1"
     inkscape:groupmode="layer"
     inkscape:label="1">
    <g
       id="group-R5">
      <path
         id="path2"
         d="m 509.098,1721.34 c 55.89,-39.29 122.222,-32.56 180.785,-26.62 8.398,0.85 16.711,1.7 25.629,2.46 19.258,2.19 39.707,-4.24 56.058,-17.64 15.891,-13.02 25.918,-31.17 27.5,-49.77 3.657,-43.46 -3.593,-86.78 -11.281,-132.64 -2.945,-17.6 -6,-35.8 -8.359,-53.94 -15.774,-77.35 -34.184,-155.67 -52,-231.43 C 702.703,1106.62 677.145,997.891 658.082,889.559 644.031,813.5 633.801,744.871 651.254,674.77 673.188,592.762 737.109,518.141 831.234,464.66 l 0.879,-0.48 c 5.547,-2.879 11.157,-5.649 16.809,-8.34 1.84,-0.871 3.703,-1.699 5.555,-2.559 3.836,-1.769 7.687,-3.531 11.574,-5.222 2.215,-0.969 4.449,-1.887 6.679,-2.829 3.586,-1.5 7.184,-2.98 10.805,-4.421 2.348,-0.918 4.703,-1.829 7.067,-2.731 3.593,-1.367 7.207,-2.687 10.836,-3.988 2.351,-0.828 4.707,-1.68 7.066,-2.481 3.812,-1.308 7.648,-2.55 11.496,-3.781 2.191,-0.687 4.371,-1.418 6.57,-2.09 4.575,-1.386 9.184,-2.707 13.805,-4 1.484,-0.41 2.953,-0.859 4.445,-1.269 6.078,-1.641 12.196,-3.18 18.336,-4.617 1.754,-0.422 3.524,-0.782 5.285,-1.172 4.446,-1.008 8.899,-1.989 13.379,-2.899 2.383,-0.48 4.774,-0.91 7.164,-1.363 3.895,-0.738 7.797,-1.457 11.716,-2.117 2.58,-0.43 5.17,-0.84 7.76,-1.242 3.8,-0.59 7.61,-1.149 11.43,-1.668 2.62,-0.352 5.23,-0.7 7.85,-1.02 3.91,-0.48 7.82,-0.902 11.74,-1.312 2.53,-0.258 5.06,-0.528 7.59,-0.758 4.32,-0.391 8.66,-0.711 12.99,-1.012 2.13,-0.148 4.25,-0.328 6.38,-0.461 6.43,-0.379 12.87,-0.68 19.34,-0.859 1.04,-0.028 2.09,-0.02 3.13,-0.039 4.91,-0.121 9.82,-0.211 14.74,-0.211 0.51,0 1.01,0.019 1.52,0.031 4.99,0.012 9.99,0.129 15,0.258 2.29,0.062 4.57,0.07 6.86,0.152 7.31,0.27 14.63,0.649 21.97,1.168 6.46,0.34 12.9,0.84 19.3,1.453 19.2,1.821 38.11,4.629 56.53,7.367 11.99,1.782 23.74,3.543 35.32,5 19.23,2.43 38.07,4.063 57.07,3.774 62.81,-1.934 119.38,-37.813 174.09,-72.5 l 12.04,-7.633 1.06,-0.629 c 0.01,0 0.02,-0.012 0.02,-0.012 55.95,-31.636 116.6,-55.578 179.81,-71.597 7.91,-2 15.85,-3.879 23.83,-5.641 15.95,-3.512 32.05,-6.519 48.26,-9.039 40.51,-6.293 81.71,-9.461 123.07,-9.461 83.7,0 168.04,12.988 248.65,39.371 25.58,9.028 51.08,19.887 75.74,30.399 18.01,7.672 35.78,15.242 53.44,22.101 0.13,0.047 0.27,0.11 0.39,0.16 0.06,0.02 0.11,0.028 0.16,0.047 53.26,20.653 105.66,34.801 161.26,25.973 31.06,-5.711 60.79,-16.77 92.26,-28.481 11.54,-4.289 23.07,-8.582 34.67,-12.609 6.3,-2.519 12.68,-4.851 19.08,-7.09 1.74,-0.613 3.49,-1.203 5.24,-1.793 5.52,-1.859 11.07,-3.617 16.66,-5.269 1.2,-0.348 2.39,-0.739 3.59,-1.09 6.62,-1.899 13.28,-3.641 19.98,-5.25 1.64,-0.399 3.29,-0.758 4.93,-1.129 5.5,-1.27 11.03,-2.441 16.58,-3.512 1.61,-0.316 3.21,-0.648 4.83,-0.937 6.78,-1.25 13.6,-2.36 20.45,-3.321 1.37,-0.199 2.75,-0.351 4.12,-0.531 5.75,-0.758 11.51,-1.418 17.3,-1.98 1.81,-0.18 3.62,-0.36 5.44,-0.52 6.96,-0.597 13.93,-1.097 20.93,-1.418 0.72,-0.031 1.44,-0.043 2.15,-0.07 6.38,-0.27 12.78,-0.402 19.19,-0.43 0.96,-0.011 1.91,-0.07 2.87,-0.07 1.05,0 2.11,0.059 3.16,0.07 4.73,0.028 9.46,0.129 14.2,0.278 1.77,0.062 3.54,0.089 5.31,0.16 6.43,0.269 12.85,0.64 19.29,1.14 1.05,0.09 2.1,0.211 3.15,0.289 5.41,0.461 10.82,0.993 16.23,1.602 2.08,0.238 4.17,0.512 6.25,0.77 4.55,0.558 9.11,1.191 13.66,1.871 2.08,0.32 4.16,0.621 6.23,0.961 5.42,0.867 10.83,1.828 16.23,2.867 1.04,0.191 2.08,0.359 3.11,0.57 6.41,1.262 12.81,2.66 19.21,4.152 1.76,0.411 3.52,0.86 5.28,1.289 4.71,1.149 9.4,2.34 14.08,3.61 2.12,0.57 4.24,1.16 6.36,1.762 4.64,1.308 9.27,2.687 13.88,4.109 1.8,0.559 3.6,1.09 5.39,1.668 6.3,2.012 12.59,4.121 18.84,6.359 0.9,0.321 1.79,0.68 2.69,1 5.37,1.961 10.73,3.992 16.06,6.114 2,0.789 3.98,1.609 5.98,2.429 4.36,1.789 8.72,3.629 13.05,5.528 2.01,0.882 4.02,1.75 6.03,2.66 4.97,2.242 9.91,4.562 14.82,6.941 1.19,0.57 2.38,1.11 3.56,1.692 6.01,2.968 11.99,6.046 17.92,9.226 1.65,0.883 3.28,1.813 4.92,2.711 4.36,2.391 8.72,4.832 13.04,7.34 1.99,1.16 3.98,2.332 5.97,3.519 4.19,2.5 8.35,5.063 12.49,7.672 1.73,1.09 3.46,2.149 5.18,3.258 5.62,3.621 11.21,7.32 16.73,11.152 31.98,19.61 66.27,32.551 101.55,38.411 4.79,0.718 9.58,1.269 14.39,1.687 9.6,0.813 19.25,1.051 28.96,0.863 24.28,-0.472 48.99,-3.57 74.58,-6.793 5.98,-0.75 12,-1.488 18.06,-2.218 1.48,-0.18 2.94,-0.36 4.42,-0.532 5.99,-0.699 12,-1.339 18.05,-1.929 1.54,-0.149 3.08,-0.297 4.62,-0.438 6.09,-0.551 12.19,-1.019 18.3,-1.383 1.33,-0.078 2.66,-0.128 4,-0.199 6.42,-0.32 12.85,-0.539 19.3,-0.551 0.2,0 0.4,-0.019 0.6,-0.019 3.75,0 7.5,0.062 11.25,0.191 5.23,0.051 10.45,0.211 15.66,0.469 76.27,3.742 149.75,29.082 208.39,72.129 0.05,0.043 0.08,0.094 0.13,0.121 0.14,0.109 0.29,0.199 0.44,0.313 59.52,46.207 98.99,105.117 111.16,165.91 11.04,55.777 -4.11,110.09 -19.13,156.508 -29.83,93.531 -64.83,186.582 -98.68,276.56 -20.22,53.75 -41.13,109.32 -60.43,163.65 -42.2,128.33 -70.22,243.43 -85.66,351.87 -0.39,4.01 -0.81,8.05 -1.24,12.13 -4.01,38.78 -8.16,78.89 9.84,109.78 11.04,19.69 33.51,32.4 54.97,42.59 11.65,-0.74 23.67,-1.84 36.29,-2.98 71.02,-6.46 151.46,-13.78 213.01,40.51 26.29,21.09 40.66,54.84 38.48,90.45 -2.25,36.74 -21.38,69.49 -51.19,87.6 -2.22,1.34 -4.63,2.35 -7.14,3 -147.06,37.5 -274.12,134.31 -348.84,265.98 -66.31,112.53 -96.25,243.58 -125.21,370.32 -5.39,23.59 -10.77,47.14 -16.32,70.37 -67.1,289.28 -147.27,593.06 -322.26,847.86 -173.29,260.09 -447.8,432.6 -733.91,461.42 -241.82,28.08 -490.47,-40.4 -682.26,-187.86 C 1308.08,3659.05 1151.7,3416.49 1046.95,3094.4 998.289,2941.39 960.281,2774.08 923.738,2552.12 905.52,2446.53 887.313,2351.83 848.707,2261.69 799.754,2141.53 710.41,2038.06 597.129,1970.34 l -1.348,-0.86 c -12.14,-8.31 -25.547,-15.47 -39.738,-23.05 -28.387,-15.16 -57.742,-30.85 -80.777,-57.78 l -0.68,-0.83 c -18.227,-23.17 -25.344,-52.84 -20.051,-83.53 5.844,-33.86 26.219,-64.81 54.563,-82.95"
         style="fill:#210130;fill-opacity:1;fill-rule:nonzero;stroke:none"
         transform="matrix(0.13333333,0,0,-0.13333333,0,566.93333)" />
      <path
         id="path3"
         d="m 1499.5,2800.02 c 9.51,28.78 32.11,48.32 62.13,53.8 29.3,7.61 57.59,0.03 77.79,-20.93 24.04,-24.95 32.99,-64.54 22.27,-98.52 -9.15,-29.01 -31.39,-49.12 -61.13,-55.31 -7.82,-2.16 -15.57,-3.22 -23.12,-3.22 -21.04,0 -40.57,8.23 -55.7,23.95 -24.27,25.22 -33.42,66.43 -22.24,100.23 z m 397.68,-145.81 c 7.26,12.56 23.32,16.85 35.88,9.6 117.06,-67.62 268.57,-67.97 385.97,-0.88 12.58,7.19 28.62,2.82 35.82,-9.77 7.2,-12.59 2.82,-28.63 -9.77,-35.83 -66.34,-37.91 -142.29,-56.86 -218.23,-56.86 -76.65,0 -153.28,19.3 -220.06,57.87 -12.56,7.25 -16.86,23.31 -9.61,35.87 z m 686.3,127.89 c 4.52,27.62 20.53,50.1 44.03,61.93 27.66,16.73 62.21,15.04 90.52,-4.54 29.04,-20.08 43.78,-53.74 37.91,-86.18 -2.85,-32.11 -25.98,-59.6 -59.39,-70.35 -9.53,-3.06 -19.17,-4.55 -28.56,-4.55 -23.85,0 -46.14,9.57 -61.22,27.23 -19.26,19.43 -27.95,47.89 -23.29,76.46 z M 537.734,1765.36 l 1.188,-0.79 c 39.93,-28.33 93.672,-22.89 145.656,-17.61 8.692,0.88 17.293,1.76 25.754,2.47 32.551,3.7 67.273,-6.94 94.52,-29.27 26.8,-21.96 43.765,-53.29 46.543,-85.96 4.218,-50.06 -3.934,-98.7 -11.809,-145.75 -2.926,-17.43 -5.941,-35.46 -8.191,-52.93 l -0.317,-1.88 c -15.969,-78.43 -34.555,-157.46 -52.527,-233.9 -24.559,-104.43 -49.949,-212.42 -68.789,-319.502 -12.961,-70.168 -22.457,-132.898 -7.664,-192.34 15.543,-58.117 58.254,-112.796 121.554,-156.507 5.926,50.57 16.231,145.519 27.641,250.679 38.309,353.06 102.426,943.97 134.125,1096.36 25.002,120.15 106.012,155.55 173.512,148.59 91.04,-9.37 185.21,-95.61 185.21,-223.7 0,-50.23 -0.52,-156.64 -1.18,-291.36 -1.61,-329.16 -4.5,-919.991 -0.28,-1042.651 56.81,-7.707 107.03,-35.118 152.48,-63.278 2.96,35.68 6.11,80.61 9.58,130.199 10.78,153.719 25.54,364.25 49.82,511.21 21.34,129.19 152.76,188.33 265.84,188.6 h 0.81 c 104.23,0 217.38,-48.55 235.88,-157.25 16.77,-98.528 28.52,-164.88 35.88,-205.509 25.54,22.828 62.8,46.918 108.25,49.707 52.92,3.282 103.62,-22.519 150.64,-76.59 76.18,-87.589 93.51,-357.007 97.07,-438.769 26.45,-6.527 51.51,-15.59 75.87,-24.649 -4.88,41.879 -11.05,78.7 -17.49,117.11 -15.16,90.308 -30.84,183.691 -30.84,354.16 0,152.96 94.41,223.86 182.75,239.2 92.16,16 206.16,-25.58 245.73,-136.04 53.31,-148.871 129.02,-415.16 154.7,-506.742 21.47,10.48 43.73,18.512 66.57,24.141 -6.49,44.043 -22.73,133.902 -42.33,242.3 -44.79,247.75 -106.12,587.071 -127.46,794.251 -18.05,175.34 60.46,251.75 139.96,264.8 87.83,14.42 199,-45.9 224.53,-158.64 23.19,-102.45 114.07,-441.66 187.1,-714.219 53.41,-199.36 79.18,-296.09 91.49,-344.071 31.79,32.438 52.98,69.442 60.45,106.77 8.58,43.379 -4.59,89.961 -17.62,130.199 -29.45,92.371 -64.21,184.781 -97.83,274.141 -20.3,53.97 -41.3,109.77 -60.97,165.15 -43.44,132.11 -72.18,250.34 -88.04,362.04 l -0.14,1.15 c -0.4,4.09 -0.83,8.23 -1.26,12.4 -4.65,44.96 -9.93,95.92 16.48,141.24 18.59,33.17 51.59,51.81 84.47,66.96 3.86,1.78 8.04,2.6 12.34,2.38 14.68,-0.76 29.99,-2.15 44.8,-3.5 63.56,-5.78 129.28,-11.76 173.9,27.95 l 1.19,1 c 13.38,10.56 20.39,27.51 19.23,46.52 -1.12,18.29 -9.7,34.48 -23.15,44.01 -159.02,41.78 -296.27,147.08 -377.07,289.48 -70.23,119.18 -101.09,254.27 -130.94,384.91 -5.35,23.42 -10.7,46.8 -16.25,70.03 -66,284.56 -144.63,582.93 -314.63,830.48 -164.88,247.47 -425.02,411.33 -696.07,438.63 -228.75,26.56 -463.56,-38.07 -644.61,-177.29 -195.15,-149.89 -345.49,-383.9 -446.85,-695.56 -47.81,-150.33 -85.27,-315.36 -121.42,-534.93 -18.133,-105.1 -37.743,-207.12 -78.36,-301.95 -52.945,-129.97 -149.738,-242.23 -272.414,-315.77 -14.305,-9.71 -29.375,-17.77 -43.961,-25.56 -25.019,-13.36 -48.66,-25.99 -65.238,-45.16 -11.109,-14.42 -11.176,-30.63 -9.262,-41.73 3.348,-19.4 15.399,-37.73 31.449,-47.86"
         style="fill:#fefef5;fill-opacity:1;fill-rule:nonzero;stroke:none"
         transform="matrix(0.13333333,0,0,-0.13333333,0,566.93333)" />
      <path
         id="path4"
         d="m 1082.4,949.531 c -0.08,-26.492 -40.96,-34.441 -53.26,-12.461 -7.21,12.078 -4.58,33.539 8.7,39.84 19.88,11.481 48.38,-2.851 44.56,-27.379 z m 208.05,562.689 c 0.66,134.65 1.18,241 1.18,291.1 0,97.13 -71.68,164.63 -138.08,171.46 -58.75,6.04 -101.31,-32.97 -116.72,-107.04 C 1005.65,1717.84 941.703,1128.51 903.496,776.41 884.773,603.859 876.957,533.051 873.02,502.508 c 0.179,-0.086 0.367,-0.156 0.546,-0.246 5.133,-2.41 10.305,-4.742 15.524,-6.981 1.797,-0.769 3.625,-1.48 5.43,-2.23 3.64,-1.52 7.281,-3.043 10.964,-4.473 2.149,-0.84 4.332,-1.609 6.496,-2.418 3.368,-1.262 6.735,-2.519 10.133,-3.711 2.352,-0.82 4.731,-1.578 7.094,-2.371 3.258,-1.09 6.512,-2.18 9.793,-3.199 2.477,-0.77 4.969,-1.488 7.457,-2.231 3.215,-0.949 6.426,-1.886 9.664,-2.777 2.563,-0.699 5.145,-1.371 7.723,-2.031 3.199,-0.828 6.402,-1.649 9.625,-2.418 2.633,-0.633 5.281,-1.223 7.926,-1.813 3.207,-0.718 6.418,-1.41 9.636,-2.07 2.684,-0.539 5.371,-1.07 8.063,-1.578 3.226,-0.602 6.466,-1.18 9.716,-1.731 2.71,-0.46 5.43,-0.91 8.16,-1.332 3.26,-0.5 6.54,-0.968 9.81,-1.418 2.73,-0.371 5.46,-0.73 8.2,-1.058 3.33,-0.41 6.66,-0.762 9.99,-1.113 2.72,-0.27 5.44,-0.559 8.17,-0.797 3.41,-0.301 6.84,-0.551 10.26,-0.793 2.67,-0.18 5.34,-0.379 8.02,-0.528 3.55,-0.203 7.11,-0.332 10.68,-0.472 2.58,-0.09 5.15,-0.219 7.73,-0.278 3.76,-0.089 7.53,-0.101 11.3,-0.113 2.42,-0.019 4.82,-0.058 7.25,-0.047 4.17,0.039 8.37,0.16 12.57,0.278 2.02,0.062 4.04,0.07 6.06,0.152 6.23,0.25 12.47,0.578 18.72,1.027 23.83,1.282 46.93,4.723 71.38,8.352 5.01,0.75 10.04,1.488 15.09,2.219 1.55,0.222 3.08,0.441 4.63,0.66 4.9,0.691 9.82,1.359 14.77,2 0.65,0.082 1.3,0.172 1.95,0.261 5.36,0.668 10.75,1.27 16.16,1.821 1.39,0.14 2.78,0.269 4.18,0.398 4.56,0.43 9.14,0.801 13.74,1.102 0.86,0.058 1.71,0.148 2.57,0.211 -3.85,120.199 -2.11,560.278 0.25,1041.458"
         style="fill:#d8c4fa;fill-opacity:1;fill-rule:nonzero;stroke:none"
         transform="matrix(0.13333333,0,0,-0.13333333,0,566.93333)" />
      <path
         id="path5"
         d="m 1840.39,715.539 -76.67,82.981 73.22,86.558 72.35,-77.777 z m 356.17,-349.367 c 1.18,0.496 2.36,0.988 3.55,1.488 3.38,1.43 6.77,2.852 10.17,4.27 1.51,0.629 3.02,1.25 4.54,1.879 3.1,1.281 6.21,2.55 9.33,3.82 1.62,0.652 3.24,1.301 4.86,1.949 3.04,1.211 6.08,2.41 9.13,3.59 1.66,0.641 3.31,1.281 4.96,1.91 3.11,1.192 6.23,2.344 9.36,3.492 1.57,0.571 3.14,1.16 4.72,1.719 3.4,1.223 6.81,2.402 10.24,3.563 1.28,0.437 2.57,0.886 3.86,1.32 4.53,1.496 9.07,2.949 13.64,4.328 0.19,0.059 0.37,0.121 0.56,0.168 4.86,1.473 9.74,2.852 14.65,4.152 0.88,0.231 1.75,0.43 2.63,0.649 3.89,1.011 7.79,1.972 11.72,2.859 1.58,0.363 3.16,0.684 4.74,1.012 3.26,0.699 6.51,1.371 9.79,1.969 1.83,0.339 3.67,0.64 5.51,0.949 3.06,0.523 6.14,1.004 9.23,1.433 1.95,0.27 3.9,0.52 5.86,0.758 3.03,0.36 6.08,0.672 9.12,0.949 2,0.18 3.99,0.364 6,0.5 3.11,0.223 6.25,0.364 9.39,0.481 1.93,0.07 3.86,0.172 5.81,0.199 3.53,0.07 7.08,0.012 10.64,-0.058 1.56,-0.032 3.11,-0.008 4.67,-0.071 0.25,-0.008 0.49,0 0.74,-0.008 -5.63,110.84 -27.74,332.11 -83.74,396.5 -35.67,41.02 -71.92,60.758 -107.56,58.649 -60.89,-3.578 -105.71,-68.328 -106.15,-68.981 -5.97,-8.757 -16.65,-13.089 -27.02,-10.961 -10.38,2.141 -18.48,10.282 -20.49,20.692 -0.14,0.699 -14.04,72.601 -45.7,258.64 -13.39,78.72 -102.77,113.62 -184.8,113.55 -94.74,-0.23 -197.7,-45.05 -214.15,-144.65 -23.88,-144.528 -38.54,-353.642 -49.24,-506.321 -4.39,-62.508 -8.26,-117.668 -11.92,-156.848 0.3,-0.172 0.59,-0.34 0.9,-0.5 2.3,-1.223 4.63,-2.383 6.95,-3.57 3.03,-1.551 6.05,-3.129 9.11,-4.641 2.48,-1.219 4.98,-2.391 7.47,-3.582 2.94,-1.406 5.87,-2.816 8.83,-4.188 2.61,-1.199 5.24,-2.351 7.87,-3.511 2.89,-1.289 5.76,-2.578 8.67,-3.828 2.71,-1.161 5.44,-2.262 8.16,-3.379 2.86,-1.184 5.71,-2.371 8.59,-3.524 2.79,-1.097 5.6,-2.148 8.4,-3.218 2.85,-1.09 5.7,-2.192 8.57,-3.239 2.86,-1.043 5.73,-2.043 8.61,-3.051 2.84,-1 5.68,-2 8.54,-2.96 2.92,-0.989 5.85,-1.918 8.79,-2.872 2.85,-0.918 5.69,-1.839 8.55,-2.718 2.97,-0.91 5.96,-1.782 8.95,-2.66 2.84,-0.829 5.69,-1.668 8.55,-2.469 3.02,-0.84 6.05,-1.653 9.09,-2.449 2.86,-0.762 5.71,-1.524 8.58,-2.243 3.06,-0.769 6.12,-1.507 9.19,-2.238 2.87,-0.68 5.75,-1.359 8.63,-2.012 3.08,-0.691 6.17,-1.359 9.26,-2.007 2.9,-0.614 5.79,-1.211 8.7,-1.793 3.1,-0.618 6.21,-1.207 9.32,-1.778 2.91,-0.543 5.83,-1.07 8.74,-1.582 3.13,-0.539 6.26,-1.051 9.4,-1.551 2.92,-0.468 5.85,-0.918 8.78,-1.347 3.15,-0.473 6.31,-0.903 9.47,-1.332 2.93,-0.391 5.85,-0.77 8.78,-1.117 3.18,-0.391 6.37,-0.762 9.55,-1.102 2.94,-0.32 5.87,-0.621 8.81,-0.91 3.2,-0.309 6.39,-0.602 9.6,-0.871 2.93,-0.239 5.87,-0.457 8.81,-0.668 3.22,-0.242 6.44,-0.449 9.65,-0.641 2.95,-0.18 5.9,-0.32 8.84,-0.461 3.22,-0.148 6.44,-0.301 9.67,-0.41 2.95,-0.098 5.9,-0.168 8.86,-0.238 3.23,-0.071 6.46,-0.129 9.69,-0.16 2.96,-0.032 5.93,-0.032 8.89,-0.02 3.22,0 6.44,0.008 9.67,0.059 2.98,0.05 5.96,0.129 8.95,0.211 3.21,0.089 6.42,0.168 9.63,0.3 3,0.118 5.99,0.278 8.99,0.43 3.2,0.168 6.41,0.328 9.6,0.527 3,0.204 5.99,0.43 8.98,0.661 3.21,0.25 6.41,0.48 9.62,0.769 3,0.274 5.99,0.582 8.99,0.883 3.18,0.328 6.37,0.641 9.55,1 3.03,0.348 6.05,0.738 9.08,1.129 3.15,0.398 6.29,0.781 9.44,1.219 3.04,0.421 6.08,0.902 9.13,1.359 3.11,0.48 6.23,0.934 9.34,1.453 3.08,0.5 6.14,1.07 9.21,1.617 3.07,0.543 6.14,1.063 9.2,1.653 3.11,0.589 6.21,1.25 9.31,1.879 3.01,0.621 6.03,1.21 9.04,1.859 3.19,0.691 6.36,1.449 9.54,2.18 2.9,0.671 5.81,1.312 8.7,2.019 3.38,0.82 6.74,1.711 10.1,2.582 2.69,0.699 5.38,1.36 8.06,2.09 3.79,1.02 7.55,2.129 11.32,3.211 2.24,0.648 4.49,1.258 6.73,1.93 6,1.789 11.98,3.66 17.93,5.597 23.45,8.282 47.06,18.352 72.06,29 4.45,1.891 8.9,3.793 13.36,5.684"
         style="fill:#d8c4fa;fill-opacity:1;fill-rule:nonzero;stroke:none"
         transform="matrix(0.13333333,0,0,-0.13333333,0,566.93333)" />
      <path
         id="path6"
         d="m 2753.6,656.5 c -40.06,7.809 -44.34,73.75 -5.55,86.879 24.53,10.57 56.86,-1.277 64.51,-27.988 12.53,-34.133 -25.06,-69.993 -58.96,-58.891 z m -85.4,385.21 c -67.29,-11.69 -139.22,-67.069 -139.22,-187.46 0,-166.09 15.31,-257.281 30.12,-345.469 7.53,-44.883 15.3,-91.16 20.7,-146.062 0.37,-0.129 0.75,-0.25 1.12,-0.379 7.93,-2.809 15.94,-5.391 24.04,-7.719 0.33,-0.101 0.66,-0.211 0.99,-0.301 8.06,-2.3 16.2,-4.32 24.4,-6.14 0.89,-0.2 1.77,-0.418 2.67,-0.61 7.9,-1.711 15.88,-3.172 23.9,-4.449 1.18,-0.191 2.35,-0.391 3.53,-0.562 7.89,-1.188 15.83,-2.161 23.8,-2.93 1.3,-0.129 2.59,-0.25 3.89,-0.367 7.96,-0.703 15.96,-1.211 23.99,-1.5 1.26,-0.051 2.53,-0.082 3.79,-0.114 8.14,-0.226 16.29,-0.277 24.47,-0.097 1.06,0.027 2.12,0.078 3.19,0.109 8.43,0.238 16.87,0.668 25.32,1.36 0.62,0.05 1.24,0.121 1.85,0.171 8.71,0.739 17.43,1.688 26.14,2.899 0.22,0.031 0.43,0.051 0.65,0.078 8.66,1.211 17.32,2.691 25.96,4.352 0.88,0.171 1.76,0.32 2.63,0.492 8.27,1.636 16.53,3.519 24.76,5.566 1.21,0.301 2.42,0.59 3.63,0.902 8.04,2.071 16.06,4.348 24.04,6.809 1.33,0.41 2.66,0.82 3.99,1.242 7.93,2.508 15.82,5.207 23.67,8.11 1.3,0.48 2.6,0.968 3.89,1.461 7.91,2.988 15.78,6.16 23.6,9.539 1.09,0.48 2.18,0.968 3.27,1.449 8.02,3.539 15.99,7.25 23.88,11.191 0.67,0.34 1.33,0.699 2,1.039 8.25,4.168 16.43,8.52 24.5,13.141 0.05,0.019 0.1,0.047 0.15,0.078 8.09,4.629 16.09,9.52 24,14.602 0.45,0.281 0.9,0.558 1.35,0.847 -20.88,74.821 -101.65,361.18 -157.35,516.711 -29.78,83.151 -116.7,114.261 -187.31,102.011"
         style="fill:#d8c4fa;fill-opacity:1;fill-rule:nonzero;stroke:none"
         transform="matrix(0.13333333,0,0,-0.13333333,0,566.93333)" />
      <path
         id="path7"
         d="m 3385.14,760.191 c -4.78,-1.601 -9.66,-3.25 -13.74,-6.222 -7.74,-5.66 -11.5,-15.231 -13.97,-24.5 -5.26,-19.66 -2.67,-57.809 -19.44,-71.778 -2.12,-1.761 -4.66,-3.203 -7.42,-3.242 -6.13,-0.109 -10.1,6.25 -12.75,11.781 -10.5,21.938 -16.83,54.129 -37.16,69.219 -6.4,4.742 -13.96,7.629 -21.51,10.16 -13.26,4.43 -65.15,8.18 -59.43,30.153 1.27,4.847 5.48,8.308 9.7,11.008 13.02,8.32 29.05,11.949 41.57,20.921 12.75,9.129 20.71,25.039 26.6,39.137 6.15,14.723 10.69,30.113 17.53,44.543 1.94,4.09 4.55,8.508 8.94,9.649 13.54,3.5 23.53,-22.239 27.95,-30.84 7.8,-15.2 17.54,-31.41 30.32,-43.75 4.89,-4.719 10.23,-8.871 16.08,-12.192 11.92,-6.758 26.32,-7.258 39.24,-11.816 5.24,-1.863 10.63,-4.762 12.94,-9.82 9.29,-20.262 -33.67,-28.461 -45.45,-32.411 z m -277.45,400.369 c -23.78,11.47 -23.18,52.13 0.75,62.71 23.63,9.75 54.24,-6 49.73,-34.13 5.63,-29.34 -29.03,-37.44 -50.48,-28.58 z m 162.01,445.36 c -18.72,82.65 -101.89,128.75 -164.8,118.42 -72.42,-11.89 -108.39,-89.49 -96.23,-207.61 21.13,-205.18 82.26,-543.351 126.9,-790.281 20.13,-111.379 35.82,-198.16 42.53,-243.679 1.35,0.07 2.68,0.05 4.03,0.101 2.75,0.117 5.5,0.18 8.24,0.219 1.95,0.039 3.92,0.16 5.87,0.16 0.98,0 1.95,-0.07 2.92,-0.082 5.85,-0.047 11.68,-0.207 17.47,-0.496 1.29,-0.063 2.56,-0.121 3.84,-0.203 5.99,-0.348 11.94,-0.809 17.87,-1.34 2.22,-0.199 4.42,-0.43 6.63,-0.649 4.76,-0.472 9.49,-0.968 14.21,-1.511 2,-0.231 4,-0.457 6,-0.688 6.18,-0.742 12.34,-1.511 18.46,-2.269 31.44,-3.961 61.05,-7.703 90.91,-6.703 7.65,0.082 15.26,0.461 22.83,1.019 0.79,0.063 1.57,0.09 2.36,0.16 7.18,0.582 14.31,1.41 21.4,2.43 1.1,0.152 2.21,0.301 3.31,0.473 6.92,1.05 13.77,2.32 20.57,3.777 1.16,0.254 2.33,0.504 3.49,0.762 6.78,1.531 13.49,3.242 20.11,5.16 1.04,0.301 2.06,0.621 3.09,0.93 6.76,2.031 13.44,4.218 20.01,6.64 0.68,0.258 1.34,0.531 2.02,0.789 6.84,2.582 13.6,5.34 20.21,8.352 0.05,0.019 0.11,0.039 0.16,0.07 6.6,3.008 13.05,6.27 19.38,9.699 0.69,0.371 1.39,0.719 2.07,1.098 5.99,3.301 11.83,6.82 17.56,10.492 0.54,0.352 1.09,0.699 1.63,1.051 -12.13,49 -53.74,204.328 -97.46,367.5 -73.14,272.999 -164.17,612.759 -187.59,716.209"
         style="fill:#d8c4fa;fill-opacity:1;fill-rule:nonzero;stroke:none"
         transform="matrix(0.13333333,0,0,-0.13333333,0,566.93333)" />
      <path
         id="path8"
         d="m 3108.44,1223.27 c -23.93,-10.58 -24.53,-51.24 -0.75,-62.71 21.45,-8.86 56.11,-0.76 50.48,28.58 4.51,28.13 -26.1,43.88 -49.73,34.13"
         style="fill:#fefef5;fill-opacity:1;fill-rule:nonzero;stroke:none"
         transform="matrix(0.13333333,0,0,-0.13333333,0,566.93333)" />
      <path
         id="path9"
         d="m 3417.65,802.422 c -12.92,4.558 -27.32,5.058 -39.24,11.816 -5.85,3.321 -11.19,7.473 -16.08,12.192 -12.78,12.34 -22.52,28.55 -30.32,43.75 -4.42,8.601 -14.41,34.34 -27.95,30.84 -4.39,-1.141 -7,-5.559 -8.94,-9.649 -6.84,-14.43 -11.38,-29.82 -17.53,-44.543 -5.89,-14.098 -13.85,-30.008 -26.6,-39.137 -12.52,-8.972 -28.55,-12.601 -41.57,-20.921 -4.22,-2.7 -8.43,-6.161 -9.7,-11.008 -5.72,-21.973 46.17,-25.723 59.43,-30.153 7.55,-2.531 15.11,-5.418 21.51,-10.16 20.33,-15.09 26.66,-47.281 37.16,-69.219 2.65,-5.531 6.62,-11.89 12.75,-11.781 2.76,0.039 5.3,1.481 7.42,3.242 16.77,13.969 14.18,52.118 19.44,71.778 2.47,9.269 6.23,18.84 13.97,24.5 4.08,2.972 8.96,4.621 13.74,6.222 11.78,3.95 54.74,12.149 45.45,32.411 -2.31,5.058 -7.7,7.957 -12.94,9.82"
         style="fill:#fefef5;fill-opacity:1;fill-rule:nonzero;stroke:none"
         transform="matrix(0.13333333,0,0,-0.13333333,0,566.93333)" />
      <path
         id="path10"
         d="m 1037.84,976.91 c -13.28,-6.301 -15.91,-27.762 -8.7,-39.84 12.3,-21.98 53.18,-14.031 53.26,12.461 3.82,24.528 -24.68,38.86 -44.56,27.379"
         style="fill:#fefef5;fill-opacity:1;fill-rule:nonzero;stroke:none"
         transform="matrix(0.13333333,0,0,-0.13333333,0,566.93333)" />
      <path
         id="path11"
         d="m 1763.72,798.52 76.67,-82.981 68.9,91.762 -72.35,77.777 -73.22,-86.558"
         style="fill:#fefef5;fill-opacity:1;fill-rule:nonzero;stroke:none"
         transform="matrix(0.13333333,0,0,-0.13333333,0,566.93333)" />
      <path
         id="path12"
         d="m 2748.05,743.379 c -38.79,-13.129 -34.51,-79.07 5.55,-86.879 33.9,-11.102 71.49,24.758 58.96,58.891 -7.65,26.711 -39.98,38.558 -64.51,27.988"
         style="fill:#fefef5;fill-opacity:1;fill-rule:nonzero;stroke:none"
         transform="matrix(0.13333333,0,0,-0.13333333,0,566.93333)" />
    </g>
  </g>
</svg>
